<svg width="35" height="35" viewBox="0 0 35 35" fill="none" xmlns="http://www.w3.org/2000/svg">
<path fill-rule="evenodd" clip-rule="evenodd" d="M17.7306 30.0321C17.7341 30.0321 17.7376 30.0321 17.741 30.0321C17.7431 30.0321 17.7451 30.032 17.7471 30.032C22.1089 30.03 27.4612 29.5203 27.4612 25.6654C27.4612 22.7949 24.2733 20.0887 22.3392 18.8658C22.1391 18.7393 22.1186 18.4506 22.2903 18.2877C23.9133 16.7473 24.6214 14.0769 24.6214 10.7695C24.4758 7.00561 21.451 4 17.741 4C14.0482 4 11.0344 6.97779 10.8628 10.7172C10.8628 14.0769 11.789 16.9761 13.171 18.2877C13.3426 18.4506 13.3221 18.7393 13.1221 18.8658C11.1879 20.0887 8 22.7949 8 25.6654C8 29.5203 13.3523 30.03 17.7141 30.032C17.7161 30.032 17.7182 30.0321 17.7202 30.0321C17.7237 30.0321 17.7271 30.0321 17.7306 30.0321Z" fill="url(#paint0_linear_2326_41)"/>
<defs>
<linearGradient id="paint0_linear_2326_41" x1="17.7306" y1="4" x2="17.7306" y2="30.0321" gradientUnits="userSpaceOnUse">
<stop stop-color="#EE805F"/>
<stop offset="1" stop-color="#EA4080"/>
</linearGradient>
</defs>
</svg>
