<svg width="31" height="31" viewBox="0 0 31 31" fill="none" xmlns="http://www.w3.org/2000/svg">
<circle cx="15.5" cy="15.5" r="15.5" fill="white"/>
<path d="M19.182 9.69666C19.7678 9.11091 20.7174 9.11089 21.3031 9.69666C21.8889 10.2824 21.8889 11.232 21.3031 11.8178L18.1215 14.9994L21.3031 18.182C21.8889 18.7678 21.8889 19.7173 21.3031 20.3031C20.7174 20.8889 19.7678 20.8888 19.182 20.3031L15.9994 17.1215L12.8178 20.3031C12.232 20.8888 11.2825 20.8888 10.6967 20.3031C10.1109 19.7173 10.1109 18.7678 10.6967 18.182L13.8783 14.9994L10.6967 11.8178C10.1109 11.232 10.1109 10.2824 10.6967 9.69666C11.2825 9.11088 12.232 9.11088 12.8178 9.69666L15.9994 12.8783L19.182 9.69666Z" fill="black"/>
<path d="M19.182 9.69666C19.7678 9.11091 20.7174 9.11089 21.3031 9.69666C21.8889 10.2824 21.8889 11.232 21.3031 11.8178L18.1215 14.9994L21.3031 18.182C21.8889 18.7678 21.8889 19.7173 21.3031 20.3031C20.7174 20.8889 19.7678 20.8888 19.182 20.3031L15.9994 17.1215L12.8178 20.3031C12.232 20.8888 11.2825 20.8888 10.6967 20.3031C10.1109 19.7173 10.1109 18.7678 10.6967 18.182L13.8783 14.9994L10.6967 11.8178C10.1109 11.232 10.1109 10.2824 10.6967 9.69666C11.2825 9.11088 12.232 9.11088 12.8178 9.69666L15.9994 12.8783L19.182 9.69666Z" fill="url(#paint0_linear_2353_2)"/>
<defs>
<linearGradient id="paint0_linear_2353_2" x1="10.2574" y1="15" x2="21.7426" y2="15" gradientUnits="userSpaceOnUse">
<stop stop-color="#EA4080"/>
<stop offset="1" stop-color="#EE805F"/>
</linearGradient>
</defs>
</svg>
