<svg width="35" height="35" viewBox="0 0 35 35" fill="none" xmlns="http://www.w3.org/2000/svg">
<path d="M20.8027 15.0693C24.6984 15.0694 27.8564 18.2274 27.8564 22.123C27.8564 22.9136 27.7243 23.6733 27.4844 24.3828L30.4688 26.8877C31.1791 27.484 31.2719 28.5434 30.6758 29.2539C30.0796 29.9641 29.02 30.0569 28.3096 29.4609L25.6592 27.2363C24.3943 28.4381 22.6852 29.1767 20.8027 29.1768C16.9071 29.1767 13.7491 26.0186 13.749 22.123C13.7491 18.2274 16.9071 15.0694 20.8027 15.0693ZM11.7891 18.7637C11.3213 19.9034 11.0615 21.1507 11.0615 22.459C11.0616 24.6336 11.774 26.6417 12.9785 28.2627C12.8169 28.6038 12.4717 28.8408 12.0693 28.8408H4.00781C3.45135 28.8408 3.00012 28.3894 3 27.833V19.7715C3 19.215 3.45128 18.7637 4.00781 18.7637H11.7891ZM20.8027 18.2432C18.6602 18.2432 16.9229 19.9805 16.9229 22.123C16.923 24.2656 18.6602 26.0029 20.8027 26.0029C22.9453 26.0029 24.6825 24.2656 24.6826 22.123C24.6825 19.9805 22.9453 18.2432 20.8027 18.2432ZM12.0693 6C12.6258 6.00006 13.0771 6.45131 13.0771 7.00781V15.0693C13.0771 15.6258 12.6258 16.0771 12.0693 16.0771H4.00781C3.45131 16.0771 3.00006 15.6258 3 15.0693V7.00781C3 6.45128 3.45128 6 4.00781 6H12.0693ZM24.833 6C25.3895 6 25.8408 6.45128 25.8408 7.00781V14.1201C24.3709 13.23 22.6466 12.7179 20.8027 12.7178C18.9587 12.7178 17.2337 13.2299 15.7637 14.1201V7.00781C15.7637 6.4513 16.215 6.00003 16.7715 6H24.833Z" fill="url(#paint0_linear_2326_28)"/>
<defs>
<linearGradient id="paint0_linear_2326_28" x1="17.0343" y1="6" x2="17.0343" y2="29.8537" gradientUnits="userSpaceOnUse">
<stop stop-color="#EE805F"/>
<stop offset="1" stop-color="#EA4080"/>
</linearGradient>
</defs>
</svg>
