<svg width="35" height="35" viewBox="0 0 35 35" fill="none" xmlns="http://www.w3.org/2000/svg">
<path fill-rule="evenodd" clip-rule="evenodd" d="M9.25303 9.41013C8.64592 9.80801 8.64592 10.6979 9.25303 11.0958L15.7281 15.3393C16.3983 15.7785 17.2882 15.2978 17.2882 14.4965V12.4326C18.0718 12.3999 18.859 12.5197 19.605 12.7903C20.807 13.2263 21.8402 14.0318 22.5564 15.0911C23.2726 16.1504 23.635 17.4093 23.5917 18.6873C23.5485 19.9653 23.1017 21.1967 22.3156 22.2052C21.5294 23.2137 20.4441 23.9474 19.2153 24.3012C17.9865 24.655 16.6773 24.6106 15.4752 24.1746C14.2731 23.7385 13.24 22.9331 12.5238 21.8737C12.0602 21.188 11.7448 20.4185 11.5917 19.6144C11.453 18.8855 10.8873 18.2572 10.1456 18.2321L8.3082 18.1699C7.56658 18.1448 6.93616 18.7278 7.00518 19.4666C7.16984 21.2292 7.77505 22.93 8.77456 24.4085C10.026 26.2596 11.8314 27.667 13.9319 28.4289C16.0324 29.1909 18.3202 29.2684 20.4674 28.6502C22.6146 28.032 24.511 26.7499 25.8848 24.9877C27.2586 23.2255 28.0392 21.0736 28.1148 18.8404C28.1904 16.6072 27.5571 14.4075 26.3056 12.5564C25.0542 10.7053 23.2488 9.29788 21.1483 8.5359C19.9046 8.08472 18.5952 7.87353 17.2882 7.90465V6.00937C17.2882 5.20811 16.3983 4.72734 15.7281 5.16655L9.25303 9.41013Z" fill="url(#paint0_linear_2331_19)"/>
<defs>
<linearGradient id="paint0_linear_2331_19" x1="7" y1="16.9709" x2="33.7038" y2="12.1004" gradientUnits="userSpaceOnUse">
<stop stop-color="#F3D677"/>
<stop offset="1" stop-color="#F3D97D"/>
</linearGradient>
</defs>
</svg>
