<svg width="24" height="24" viewBox="0 0 24 24" fill="none" xmlns="http://www.w3.org/2000/svg">
<path d="M10.8184 3.50653C11.573 3.18311 12.427 3.18311 13.1816 3.50653L18.3936 5.73993C18.7612 5.89747 18.9999 6.25895 19 6.65887V11.9118C19 13.8495 18.0641 15.6683 16.4873 16.7946L13.1621 19.1696C12.4669 19.666 11.5331 19.666 10.8379 19.1696L7.5127 16.7946C5.93592 15.6683 5 13.8495 5 11.9118V6.65887C5.0001 6.25895 5.23884 5.89747 5.60645 5.73993L10.8184 3.50653ZM15.625 8.21844C15.2207 7.89515 14.6421 7.9369 14.2871 8.29852L14.2188 8.37469L10.918 12.5016L9.70703 11.2927C9.31654 10.9023 8.68346 10.9023 8.29297 11.2927C7.90249 11.6831 7.90258 12.3162 8.29297 12.7067L9.89746 14.3122C10.5296 14.9444 11.5714 14.8863 12.1299 14.1882L15.7812 9.62469L15.8408 9.54169C16.1158 9.11594 16.0293 8.54189 15.625 8.21844Z" fill="#A7AFBB"/>
</svg>
