<svg width="28" height="28" viewBox="0 0 28 28" fill="none" xmlns="http://www.w3.org/2000/svg">
<circle cx="14.0745" cy="13.8592" r="13.4359" fill="white"/>
<path d="M12.6477 19.4463V10.2855H15.5642V19.4463H12.6477ZM14.1089 9.21788C13.6994 9.21788 13.3475 9.08269 13.0533 8.81232C12.7591 8.53797 12.6119 8.20796 12.6119 7.82228C12.6119 7.44058 12.7591 7.11454 13.0533 6.84417C13.3475 6.56983 13.6994 6.43265 14.1089 6.43265C14.5224 6.43265 14.8743 6.56983 15.1646 6.84417C15.4588 7.11454 15.6059 7.44058 15.6059 7.82228C15.6059 8.20796 15.4588 8.53797 15.1646 8.81232C14.8743 9.08269 14.5224 9.21788 14.1089 9.21788Z" fill="#424242"/>
</svg>
