<svg width="11" height="13" viewBox="0 0 11 13" fill="none" xmlns="http://www.w3.org/2000/svg">
<path fill-rule="evenodd" clip-rule="evenodd" d="M9.91798 5.45643C9.91798 7.19827 8.81821 8.79716 7.59551 10.0199C6.99605 10.6193 6.39413 11.1011 5.94129 11.4332C5.79278 11.5421 5.66095 11.6344 5.55131 11.7091C5.44167 11.6344 5.30984 11.5421 5.16132 11.4332C4.70849 11.1011 4.10657 10.6193 3.50711 10.0199C2.2844 8.79716 1.18464 7.19827 1.18464 5.45643C1.18464 3.04479 3.13967 1.08976 5.55131 1.08976C7.96295 1.08976 9.91798 3.04479 9.91798 5.45643ZM10.5898 5.45643C10.5898 9.4872 5.55131 12.5103 5.55131 12.5103C5.55131 12.5103 0.512848 9.4872 0.512848 5.45643C0.512848 2.67376 2.76864 0.417969 5.55131 0.417969C8.33397 0.417969 10.5898 2.67376 10.5898 5.45643ZM6.89514 5.45634C6.89514 6.19838 6.2936 6.79993 5.55155 6.79993C4.80951 6.79993 4.20796 6.19838 4.20796 5.45634C4.20796 4.71429 4.80951 4.11275 5.55155 4.11275C6.2936 4.11275 6.89514 4.71429 6.89514 5.45634ZM7.56694 5.45634C7.56694 6.5694 6.66462 7.47172 5.55155 7.47172C4.43849 7.47172 3.53617 6.5694 3.53617 5.45634C3.53617 4.34327 4.43849 3.44095 5.55155 3.44095C6.66462 3.44095 7.56694 4.34327 7.56694 5.45634Z" fill="white"/>
<path fill-rule="evenodd" clip-rule="evenodd" d="M9.91798 5.45643C9.91798 7.19827 8.81821 8.79716 7.59551 10.0199C6.99605 10.6193 6.39413 11.1011 5.94129 11.4332C5.79278 11.5421 5.66095 11.6344 5.55131 11.7091C5.44167 11.6344 5.30984 11.5421 5.16132 11.4332C4.70849 11.1011 4.10657 10.6193 3.50711 10.0199C2.2844 8.79716 1.18464 7.19827 1.18464 5.45643C1.18464 3.04479 3.13967 1.08976 5.55131 1.08976C7.96295 1.08976 9.91798 3.04479 9.91798 5.45643ZM10.5898 5.45643C10.5898 9.4872 5.55131 12.5103 5.55131 12.5103C5.55131 12.5103 0.512848 9.4872 0.512848 5.45643C0.512848 2.67376 2.76864 0.417969 5.55131 0.417969C8.33397 0.417969 10.5898 2.67376 10.5898 5.45643ZM6.89514 5.45634C6.89514 6.19838 6.2936 6.79993 5.55155 6.79993C4.80951 6.79993 4.20796 6.19838 4.20796 5.45634C4.20796 4.71429 4.80951 4.11275 5.55155 4.11275C6.2936 4.11275 6.89514 4.71429 6.89514 5.45634ZM7.56694 5.45634C7.56694 6.5694 6.66462 7.47172 5.55155 7.47172C4.43849 7.47172 3.53617 6.5694 3.53617 5.45634C3.53617 4.34327 4.43849 3.44095 5.55155 3.44095C6.66462 3.44095 7.56694 4.34327 7.56694 5.45634Z" fill="white"/>
</svg>
