<svg width="11" height="11" viewBox="0 0 11 11" fill="none" xmlns="http://www.w3.org/2000/svg">
<path fill-rule="evenodd" clip-rule="evenodd" d="M5.93673 0.12388C5.70542 -0.0380387 5.39755 -0.0380378 5.16623 0.123881L0.494992 3.39375C0.172138 3.61975 0.332048 4.12704 0.726141 4.12704H1.18485V9.50138C1.18485 9.87241 1.48562 10.1732 1.85664 10.1732H9.24638C9.6174 10.1732 9.91818 9.87241 9.91818 9.50138V4.12704H10.3768C10.7709 4.12704 10.9308 3.61974 10.608 3.39375L5.93673 0.12388ZM9.24638 4.12704H1.85664V9.50138H3.87202V6.47831C3.87202 6.10729 4.1728 5.80651 4.54382 5.80651H6.5592C6.93023 5.80651 7.231 6.10729 7.231 6.47831V9.50138H9.24638V4.12704ZM5.55148 0.674236L9.52436 3.45525H1.57861L5.55148 0.674236ZM6.5592 9.50138H4.54382V6.47831H6.5592V9.50138Z" fill="white"/>
</svg>
