<svg width="35" height="35" viewBox="0 0 35 35" fill="none" xmlns="http://www.w3.org/2000/svg">
<path fill-rule="evenodd" clip-rule="evenodd" d="M27.9402 6.73787C26.9563 5.75405 25.3613 5.75404 24.3774 6.73786L17.9328 13.1825L11.4882 6.73786C10.5044 5.75404 8.90926 5.75405 7.92544 6.73787L6.73787 7.92544C5.75404 8.90926 5.75404 10.5044 6.73787 11.4882L13.1825 17.9328L6.73788 24.3774C5.75406 25.3612 5.75406 26.9563 6.73788 27.9402L7.92546 29.1277C8.90928 30.1116 10.5044 30.1116 11.4882 29.1277L17.9328 22.6831L24.3774 29.1277C25.3612 30.1116 26.9563 30.1116 27.9402 29.1277L29.1277 27.9402C30.1116 26.9563 30.1116 25.3612 29.1277 24.3774L22.6831 17.9328L29.1277 11.4882C30.1116 10.5044 30.1116 8.90926 29.1277 7.92544L27.9402 6.73787Z" fill="url(#paint0_linear_2331_20)"/>
<defs>
<linearGradient id="paint0_linear_2331_20" x1="4.69449" y1="32.6556" x2="19.7116" y2="-7.20136" gradientUnits="userSpaceOnUse">
<stop stop-color="#EA4080"/>
<stop offset="1" stop-color="#EE805F"/>
</linearGradient>
</defs>
</svg>
