<svg width="24" height="24" viewBox="0 0 24 24" fill="none" xmlns="http://www.w3.org/2000/svg">
<path d="M11.7278 8.27179C12.7534 9.87513 14.1246 11.2374 15.7463 12.2532L8.85669 19.1439C8.43163 19.5689 8.21837 19.7815 7.95728 19.9212C7.69633 20.0607 7.40168 20.1198 6.81274 20.2376L3.7356 20.8528C3.40299 20.9194 3.23645 20.9523 3.14185 20.8577C3.04756 20.7631 3.08032 20.597 3.14673 20.265L3.76294 17.1878C3.88083 16.5984 3.93961 16.3034 4.07935 16.0423C4.21908 15.7813 4.4317 15.5689 4.85669 15.1439L11.7278 8.27179ZM16.1116 4.03644C16.6711 3.75917 17.3284 3.75919 17.8879 4.03644C18.182 4.18217 18.455 4.45506 19.0002 5.00031C19.5453 5.54533 19.8184 5.81762 19.9641 6.11163C20.2414 6.67111 20.2413 7.32849 19.9641 7.888C19.8184 8.18209 19.5455 8.45505 19.0002 9.00031L17.2034 10.7962C15.5308 9.84486 14.1456 8.46847 13.1819 6.81769L15.0002 5.00031C15.5453 4.45527 15.8176 4.18222 16.1116 4.03644Z" fill="#A7AFBB"/>
</svg>
