<svg width="93" height="23" viewBox="0 0 93 23" fill="none" xmlns="http://www.w3.org/2000/svg">
<path fill-rule="evenodd" clip-rule="evenodd" d="M5.73997 9.14247C9.94201 7.6916 10.6538 3.92071 10.12 0.457785C10.12 0.334598 10.2295 0.24563 10.3321 0.279848C14.3562 2.244 18.8731 6.53501 18.8731 12.9681C18.8731 17.9024 15.0474 22.2619 9.49033 22.2619C4.56285 22.4877 0.381333 18.6689 0.155491 13.7415C0.00492872 10.477 1.65427 7.39048 4.4465 5.69323C4.556 5.6248 4.69972 5.69323 4.69972 5.81642C4.75447 6.48026 4.93241 8.14329 5.66469 9.14247H5.73312H5.73997Z" fill="#EB545D"/>
<path fill-rule="evenodd" clip-rule="evenodd" d="M30.7058 18.347L31.007 17.9912L31.9514 20.9955L31.8282 21.1187C31.1165 21.7826 30.042 22.1179 28.6664 22.1179H28.6117C27.3593 22.1179 26.3806 21.762 25.6962 21.0982C25.0187 20.4207 24.6628 19.401 24.6628 18.1143V9.92925H22.247V6.62373H24.6628V2.64068H28.379V6.62373H31.3286V9.92925H28.3585V17.3136C28.3585 17.6558 28.4474 18.744 29.4877 18.744C30.0215 18.744 30.5211 18.5455 30.7058 18.3333V18.3539V18.347ZM32.67 21.7757V6.63742H36.3861V21.7757H32.67ZM34.511 0.450691C35.7428 0.450691 36.742 1.44987 36.742 2.68175C36.742 3.91362 35.7428 4.9128 34.511 4.9128C33.2859 4.9128 32.2867 3.92046 32.2799 2.69543C32.2799 1.47725 33.2996 0.443848 34.511 0.443848V0.450691ZM46.378 6.26101C49.5945 6.26101 51.367 8.01301 51.367 11.209V21.7552H47.6509V12.1056C47.5825 10.3878 46.7544 9.60075 45.0024 9.60075C43.4283 9.60075 42.1622 10.5657 41.5189 11.387V21.7552H37.8028V6.6511H41.5189V8.25938C42.5934 7.22598 44.3043 6.29523 46.378 6.29523V6.26101ZM63.7337 8.21147V1.10085H67.4498V21.7963H63.7337V20.2222C62.5839 21.4335 60.9893 22.1248 59.3195 22.1316C55.2611 22.1316 52.5442 18.9493 52.5442 14.2134C52.5442 9.45703 55.2611 6.2747 59.3195 6.2747C60.9962 6.28154 62.5908 6.9796 63.7337 8.20463V8.21147ZM63.7337 11.4143C62.8919 10.3193 61.6053 9.66234 60.2297 9.62812C57.9233 9.62812 56.3835 11.4691 56.3835 14.2203C56.3835 16.9578 57.9233 18.7987 60.2297 18.7987C61.571 18.7987 63.0356 18.087 63.7337 17.0467V11.4143ZM76.1413 6.28154C80.5418 6.28154 83.5941 9.67603 83.5941 14.5009V15.5206H72.3499C72.7263 17.649 74.403 19.004 76.6957 19.004C78.1465 19.004 79.7343 18.3812 80.6445 17.4642L80.8977 17.252L82.6702 19.7911L82.4923 19.9553C80.8156 21.4404 78.6324 22.2206 76.3945 22.1384C71.7477 22.1384 68.4764 18.8671 68.4764 14.1997C68.3258 9.97715 71.6313 6.43211 75.8539 6.28839C75.9565 6.28154 76.0592 6.28154 76.1618 6.28154H76.1413ZM72.3362 12.7146H79.967C79.7548 10.4425 77.8728 9.40912 76.1413 9.40912C73.5339 9.40912 72.5484 11.3733 72.3362 12.7352V12.7146ZM92.5868 6.28154H92.8537V10.0319L92.532 9.97715C92.2651 9.9224 91.9229 9.88819 91.5876 9.88819C90.3899 9.88819 88.7269 10.73 88.1041 11.6196V21.7552H84.388V6.63057H88.1247V8.31413C89.3565 7.02751 90.9854 6.2747 92.5936 6.2747L92.5868 6.28154Z" fill="#EB545D"/>
</svg>
