<svg width="35" height="35" viewBox="0 0 35 35" fill="none" xmlns="http://www.w3.org/2000/svg">
<path fill-rule="evenodd" clip-rule="evenodd" d="M8.53255 30.5163L8.38887 26.206C8.38468 26.0803 8.31104 25.9684 8.19907 25.9111C6.02049 24.7967 2 21.3352 2 15.5885C2 8.19872 8.38205 4 15.7718 4C22.9965 4 29.4185 8.81586 29.7018 15.7796C29.7113 16.0125 29.4792 16.1784 29.2556 16.1125C28.4734 15.8819 27.1537 15.5885 25.8487 15.5885C23.8333 15.5885 17.2833 16.2603 17.2833 22.9782C17.2833 24.9445 17.8271 26.3181 18.3462 27.1217C18.5185 27.3884 18.3228 27.8487 18.0052 27.8487H15.0113C14.9592 27.8487 14.9078 27.8609 14.8611 27.8842L9.01848 30.8055C8.79949 30.915 8.54071 30.761 8.53255 30.5163ZM32.9026 23.3141C32.9026 25.5823 31.4801 27.5588 29.3756 28.5934V30.2845C29.3756 30.5443 29.0934 30.7057 28.8694 30.574L26.7486 29.3265C26.5081 29.3488 26.2639 29.3603 26.0167 29.3603C22.2137 29.3603 19.1308 26.6533 19.1308 23.3141C19.1308 19.9749 22.2137 17.2679 26.0167 17.2679C29.8196 17.2679 32.9026 19.9749 32.9026 23.3141Z" fill="url(#paint0_linear_2326_39)"/>
<defs>
<linearGradient id="paint0_linear_2326_39" x1="17.4513" y1="4" x2="17.4513" y2="30.8414" gradientUnits="userSpaceOnUse">
<stop stop-color="#EE805F"/>
<stop offset="1" stop-color="#EA4080"/>
</linearGradient>
</defs>
</svg>
